<svg width="129" height="56" viewBox="0 0 129 56" fill="none" xmlns="http://www.w3.org/2000/svg">
<path d="M28.952 6.22223C17.3631 6.22223 7.95203 15.6334 7.95203 27.2223C7.95203 32.0259 9.5698 36.4623 12.2874 40.0012C12.3471 40.0882 12.4239 40.1622 12.5131 40.2186C12.6023 40.275 12.702 40.3127 12.8063 40.3293C12.9105 40.3459 13.017 40.3411 13.1193 40.3152C13.2217 40.2894 13.3177 40.2429 13.4015 40.1787C13.4853 40.1146 13.5551 40.0341 13.6068 39.9421C13.6585 39.8501 13.6909 39.7484 13.7021 39.6434C13.7133 39.5385 13.703 39.4325 13.6718 39.3316C13.6407 39.2308 13.5893 39.1372 13.5209 39.0569C10.9115 35.6641 9.50019 31.5024 9.50758 27.2223C9.50758 16.4734 18.2031 7.77778 28.952 7.77778C36.9274 7.77778 43.7718 12.5736 46.774 19.432C46.8128 19.5287 46.8705 19.6167 46.9439 19.6906C47.0172 19.7646 47.1047 19.823 47.201 19.8625C47.2974 19.902 47.4007 19.9218 47.5049 19.9206C47.609 19.9194 47.7118 19.8973 47.8073 19.8557C47.9027 19.814 47.9888 19.7535 48.0605 19.6779C48.1321 19.6023 48.1879 19.513 48.2244 19.4155C48.2609 19.318 48.2775 19.2142 48.2731 19.1102C48.2687 19.0061 48.2435 18.9039 48.1989 18.8098C44.954 11.3991 37.5511 6.22223 28.952 6.22223V6.22223ZM48.5691 21.6845C48.4541 21.6903 48.3418 21.7216 48.2404 21.7762C48.139 21.8307 48.0509 21.9071 47.9826 21.9999C47.9143 22.0926 47.8674 22.1994 47.8454 22.3124C47.8233 22.4255 47.8267 22.542 47.8551 22.6536C48.2082 24.119 48.3965 25.6465 48.3965 27.2223C48.3965 37.9712 39.7009 46.6668 28.952 46.6668C24.1953 46.6754 19.602 44.9321 16.0487 41.7698C15.8944 41.6328 15.692 41.5627 15.4861 41.5749C15.2801 41.5872 15.0874 41.6808 14.9505 41.8351C14.8135 41.9894 14.7434 42.1918 14.7557 42.3977C14.7679 42.6037 14.8615 42.7964 15.0158 42.9334C18.855 46.3475 23.8159 48.23 28.9536 48.2223C40.5409 48.2223 49.9536 38.8112 49.9536 27.2223C49.9536 25.5237 49.7514 23.8715 49.3687 22.2879C49.3279 22.1092 49.2253 21.9508 49.079 21.8404C48.9327 21.7299 48.7522 21.6747 48.5691 21.6845V21.6845Z" fill="#FFA07A"/>
<path d="M14.4294 12.4445C14.3244 12.4445 14.2206 12.4657 14.1241 12.5068C14.0276 12.548 13.9404 12.6083 13.8678 12.684C12.9153 13.675 12.0624 14.7572 11.3214 15.9149C11.2459 16.0326 11.2035 16.1683 11.1987 16.308C11.1938 16.4477 11.2267 16.5861 11.2939 16.7087C11.3611 16.8312 11.4601 16.9334 11.5804 17.0045C11.7008 17.0756 11.838 17.1131 11.9778 17.1127H25.8798C27.16 17.1127 28.2131 16.0565 28.2131 14.7794C28.2131 13.4992 27.16 12.4461 25.8798 12.4461H14.4309L14.4294 12.4445ZM32.1176 12.4445C30.8389 12.4445 29.7842 13.4992 29.7842 14.7779C29.7842 16.0565 30.8389 17.1112 32.1176 17.1112C33.3978 17.1112 34.4509 16.0565 34.4509 14.7779C34.4509 13.4992 33.3978 12.4445 32.1176 12.4445ZM14.7996 14.0001H25.8798C26.3247 14.0001 26.6576 14.333 26.6576 14.7779C26.6576 15.2228 26.3247 15.5557 25.8798 15.5557H13.5754C13.9751 15.0283 14.35 14.4839 14.7996 14.0001V14.0001ZM32.1176 14.0001C32.5625 14.0001 32.8954 14.333 32.8954 14.7779C32.8954 15.2228 32.5625 15.5557 32.1176 15.5557C32.0147 15.5582 31.9125 15.5397 31.8169 15.5015C31.7214 15.4634 31.6346 15.4062 31.5619 15.3335C31.4892 15.2608 31.432 15.174 31.3938 15.0785C31.3556 14.983 31.3372 14.8807 31.3398 14.7779C31.3398 14.333 31.6742 14.0001 32.1176 14.0001ZM36.7687 18.6668C35.49 18.6668 34.4354 19.7214 34.4354 21.0001C34.4354 22.2788 35.49 23.3334 36.7687 23.3334H43.7142C43.9205 23.3334 44.1184 23.2514 44.2642 23.1056C44.4101 22.9597 44.492 22.7619 44.492 22.5557C44.492 22.3494 44.4101 22.1514 44.2642 22.0056C44.1184 21.8597 43.9205 21.7779 43.7142 21.7779H36.7687C36.6658 21.7804 36.5636 21.7619 36.468 21.7238C36.3725 21.6856 36.2858 21.6285 36.213 21.5557C36.1403 21.483 36.0831 21.3962 36.0449 21.3007C36.0067 21.2052 35.9883 21.1029 35.9909 21.0001C35.9909 20.5552 36.3254 20.2223 36.7687 20.2223H47.3309C47.5372 20.2223 47.735 20.1403 47.8809 19.9945C48.0267 19.8486 48.1087 19.6508 48.1087 19.4445C48.1087 19.2383 48.0267 19.0403 47.8809 18.8944C47.735 18.7486 47.5372 18.6668 47.3309 18.6668H36.7687ZM8.76869 26.4445C8.66629 26.4445 8.56489 26.4647 8.47033 26.504C8.37576 26.5433 8.28988 26.6008 8.21761 26.6734C8.14535 26.7459 8.08812 26.8319 8.04922 26.9267C8.01032 27.0214 7.9905 27.123 7.99091 27.2254C7.99558 28.308 8.08425 29.3891 8.25536 30.4578C8.28497 30.6405 8.37877 30.8067 8.51991 30.9265C8.66105 31.0462 8.84026 31.1117 9.02536 31.1112H18.102C19.3822 31.1112 20.4354 30.0565 20.4354 28.7779C20.4354 27.4992 19.3822 26.4445 18.102 26.4445H8.76869ZM9.61025 28.0001H18.1036C18.5469 28.0001 18.8814 28.333 18.8814 28.7779C18.8814 29.2228 18.5469 29.5557 18.1036 29.5557H9.73469C9.67236 29.039 9.63085 28.5201 9.61025 28.0001V28.0001ZM32.0445 28.0001C31.4818 28.0013 30.9261 28.1242 30.4154 28.3605C29.9048 28.5968 29.4514 28.9408 29.0863 29.369C28.7213 29.7972 28.4532 30.2994 28.3006 30.841C28.148 31.3826 28.1145 31.9507 28.2022 32.5065C28.2352 32.7103 28.3479 32.8925 28.5153 33.0133C28.6828 33.1341 28.8913 33.1834 29.0951 33.1504C29.2989 33.1174 29.4813 33.0049 29.6021 32.8375C29.7228 32.67 29.7721 32.4614 29.7391 32.2576C29.7199 32.1356 29.7106 32.0124 29.7111 31.889C29.7111 30.5823 30.7378 29.5557 32.0445 29.5557H35.1011C35.3074 29.5557 35.5052 29.4737 35.6511 29.3278C35.797 29.1819 35.8789 28.9842 35.8789 28.7779C35.8789 28.5716 35.797 28.3736 35.6511 28.2278C35.5052 28.0819 35.3074 28.0001 35.1011 28.0001H32.0445V28.0001ZM40.5907 28.0001C40.3844 28.0001 40.1866 28.0819 40.0407 28.2278C39.8949 28.3736 39.8129 28.5716 39.8129 28.7779C39.8129 28.9842 39.8949 29.1819 40.0407 29.3278C40.1866 29.4737 40.3844 29.5557 40.5907 29.5557H48.16C47.9687 31.1517 47.628 32.7212 47.0509 34.2223H32.0445C31.8049 34.2223 31.5731 34.188 31.3585 34.1226C31.2605 34.0922 31.1574 34.0814 31.0553 34.0909C30.9531 34.1005 30.8539 34.1302 30.7632 34.1783C30.6726 34.2263 30.5923 34.2918 30.5271 34.371C30.4619 34.4502 30.413 34.5417 30.3832 34.6399C30.3535 34.7381 30.3435 34.8412 30.3537 34.9433C30.364 35.0454 30.3944 35.1443 30.4431 35.2346C30.4918 35.3249 30.5579 35.4047 30.6376 35.4693C30.7173 35.534 30.8089 35.5823 30.9074 35.6114C31.2682 35.7202 31.6525 35.7779 32.0445 35.7779H47.656C47.8092 35.7774 47.9589 35.7315 48.0862 35.6463C48.2135 35.5611 48.3128 35.4401 48.3716 35.2986C49.2256 33.2406 49.7451 31.0583 49.9116 28.8369C49.9195 28.7305 49.9054 28.6235 49.8701 28.5227C49.8349 28.4219 49.7793 28.3293 49.7068 28.2509C49.6342 28.1726 49.5463 28.1101 49.4486 28.0671C49.3508 28.0242 49.2452 28.002 49.1385 28.0016H40.5907V28.0001Z" fill="#FFA07A"/>
<path d="M50.4 10.8889C48.538 10.9994 46.1549 11.5641 43.3284 12.5363C43.2046 12.5785 43.0933 12.6512 43.0051 12.7478C42.9168 12.8444 42.8543 12.9619 42.8234 13.089C42.7926 13.2162 42.7943 13.3491 42.8285 13.4755C42.8626 13.6018 42.9281 13.7175 43.0189 13.8118C43.4389 14.2504 43.8387 14.7062 44.2167 15.1807C44.3156 15.3062 44.4508 15.3981 44.6039 15.444C44.757 15.4899 44.9205 15.4877 45.0722 15.4374C45.9511 15.1418 46.7569 15.0843 47.3449 15.1698C47.9282 15.2554 48.2424 15.4903 48.3202 15.6132C48.4136 15.7797 48.4882 16.1825 48.3109 16.7565C48.1336 17.3321 47.7198 18.0538 46.9996 18.7912C43.5836 22.0858 37.5822 26.415 30.8529 30.4003C24.1018 34.395 17.3942 37.5823 12.8613 38.987C12.0338 39.2063 11.0569 39.2561 10.4316 39.1083C10.1173 39.0337 9.90733 38.9122 9.81711 38.822C9.72689 38.7318 9.69733 38.6961 9.71444 38.5001C9.71644 38.4779 9.71748 38.4554 9.71755 38.4331C9.71755 37.9182 10.1951 36.9429 11.0289 35.4978C11.0887 35.3941 11.1238 35.2778 11.1313 35.1583C11.1389 35.0388 11.1187 34.9192 11.0724 34.8087C10.8365 34.2495 10.6267 33.6795 10.444 33.1007C10.4046 32.9763 10.3346 32.8639 10.2404 32.7737C10.1462 32.6835 10.0308 32.6185 9.90482 32.5846C9.77888 32.5506 9.64643 32.549 9.51965 32.5796C9.39287 32.6103 9.27584 32.6723 9.17933 32.76C7.03111 34.7169 5.29822 36.1946 4.21555 37.6242C3.67267 38.3397 3.28533 39.06 3.15467 39.8424C3.024 40.6264 3.18889 41.4446 3.626 42.2006C4.37267 43.4949 5.77733 44.3318 7.61133 44.5495C9.44689 44.7673 11.7398 44.4314 14.5693 43.4607C19.7867 41.6765 26.2033 38.5933 32.5547 34.8351C38.8858 31.0862 44.6569 26.9562 48.7278 23.2509C50.9367 21.2442 52.78 19.138 53.8829 17.2231C54.4351 16.2664 54.81 15.3564 54.9158 14.4775C55.02 13.6297 54.7913 12.7758 54.2111 12.1489C53.8579 11.6322 53.3342 11.2561 52.7318 11.0865C52.0707 10.8889 51.3007 10.8376 50.4016 10.8889C50.4005 10.8889 50.3995 10.8889 50.3984 10.8889H50.4ZM50.4902 12.4413C51.2696 12.3978 51.8809 12.4569 52.2884 12.5782C52.696 12.6996 52.8733 12.8535 52.9667 13.0091C52.9994 13.0657 53.0391 13.1179 53.0849 13.1646C53.3415 13.4228 53.4411 13.7309 53.3727 14.2893C53.3058 14.8493 53.0211 15.6039 52.5342 16.447C51.562 18.1348 49.8073 20.1693 47.6824 22.1013C43.7298 25.6993 38.0224 29.792 31.766 33.4974C25.4878 37.2105 19.1318 40.2547 14.0638 41.9891C11.3789 42.9084 9.282 43.1839 7.79489 43.0065C6.30622 42.8292 5.45844 42.2629 4.97467 41.4229C4.67911 40.9142 4.61689 40.5301 4.68844 40.0992C4.76155 39.6683 5.00267 39.1658 5.45533 38.5685C6.202 37.5838 7.74511 36.2195 9.38622 34.7309C9.43289 34.8553 9.47333 34.9813 9.52311 35.1042C8.81378 36.3222 8.18844 37.3286 8.17755 38.402C8.13867 38.9775 8.344 39.5515 8.71422 39.9233C9.09378 40.3029 9.57133 40.5035 10.0722 40.6217C11.0756 40.8582 12.2251 40.7711 13.272 40.4911C13.2825 40.4861 13.2929 40.4809 13.3031 40.4755C18.0553 39.0071 24.808 35.7777 31.6431 31.7333C31.6447 31.7333 31.6462 31.7333 31.6478 31.7333C38.4549 27.7013 44.5153 23.352 48.0931 19.8971C48.0984 19.892 48.1036 19.8868 48.1087 19.8815C48.9798 18.9933 49.532 18.0724 49.798 17.206C50.0624 16.338 50.0624 15.4996 49.6704 14.8199C49.6674 14.8146 49.6643 14.8094 49.6611 14.8043C49.2333 14.0965 48.4509 13.7481 47.5704 13.6205C46.8611 13.5163 46.0149 13.6796 45.1609 13.8911C45.1142 13.8336 45.0613 13.7791 45.0116 13.72C47.1333 13.0667 49.1571 12.5114 50.4902 12.432V12.4413Z" fill="#FFA07A"/>
<path fill-rule="evenodd" clip-rule="evenodd" d="M17.3009 40.8334C17.0946 40.8334 16.8968 40.9152 16.7509 41.0611C16.6051 41.207 16.5231 41.4049 16.5231 41.6112C16.5231 41.8175 16.6051 42.0153 16.7509 42.1611C16.8968 42.307 17.0946 42.389 17.3009 42.389H26.6342C26.8405 42.389 27.0384 42.307 27.1842 42.1611C27.3301 42.0153 27.412 41.8175 27.412 41.6112C27.412 41.4049 27.3301 41.207 27.1842 41.0611C27.0384 40.9152 26.8405 40.8334 26.6342 40.8334H17.3009ZM18.8565 43.9445C18.6502 43.9445 18.4524 44.0264 18.3065 44.1722C18.1606 44.3181 18.0787 44.516 18.0787 44.7223C18.0787 44.9286 18.1606 45.1264 18.3065 45.2722C18.4524 45.4181 18.6502 45.5001 18.8565 45.5001H28.1898C28.3961 45.5001 28.5939 45.4181 28.7398 45.2722C28.8856 45.1264 28.9676 44.9286 28.9676 44.7223C28.9676 44.516 28.8856 44.3181 28.7398 44.1722C28.5939 44.0264 28.3961 43.9445 28.1898 43.9445H18.8565Z" fill="#FFA07A"/>
<path d="M31.3009 44.7238C31.3009 44.9301 31.219 45.1279 31.0731 45.2738C30.9273 45.4196 30.7294 45.5016 30.5231 45.5016C30.3169 45.5016 30.119 45.4196 29.9732 45.2738C29.8273 45.1279 29.7454 44.9301 29.7454 44.7238C29.7454 44.5176 29.8273 44.3196 29.9732 44.1737C30.119 44.0279 30.3169 43.9461 30.5231 43.9461C30.7294 43.9461 30.9273 44.0279 31.0731 44.1737C31.219 44.3196 31.3009 44.5176 31.3009 44.7238Z" fill="#FFA07A"/>
<path fill-rule="evenodd" clip-rule="evenodd" d="M35.2022 37.7223C34.9959 37.7223 34.7981 37.8041 34.6522 37.95C34.5064 38.0959 34.4244 38.2938 34.4244 38.5001C34.4244 38.7064 34.5064 38.9041 34.6522 39.05C34.7981 39.1959 34.9959 39.2779 35.2022 39.2779H45.6524C45.8587 39.2779 46.0566 39.1959 46.2024 39.05C46.3483 38.9041 46.4302 38.7064 46.4302 38.5001C46.4302 38.2938 46.3483 38.0959 46.2024 37.95C46.0566 37.8041 45.8587 37.7223 45.6524 37.7223H35.2022Z" fill="#FFA07A"/>
<path d="M32.8565 38.5016C32.8565 38.7079 32.7745 38.9057 32.6287 39.0515C32.4828 39.1974 32.285 39.2794 32.0787 39.2794C31.8724 39.2794 31.6746 39.1974 31.5287 39.0515C31.3828 38.9057 31.3009 38.7079 31.3009 38.5016C31.3009 38.2953 31.3828 38.0974 31.5287 37.9515C31.6746 37.8057 31.8724 37.7238 32.0787 37.7238C32.285 37.7238 32.4828 37.8057 32.6287 37.9515C32.7745 38.0974 32.8565 38.2953 32.8565 38.5016Z" fill="#FFA07A"/>
<path fill-rule="evenodd" clip-rule="evenodd" d="M9.5138 23.7223C9.30752 23.7223 9.10969 23.8041 8.96383 23.95C8.81797 24.0959 8.73602 24.2938 8.73602 24.5001C8.73602 24.7064 8.81797 24.9041 8.96383 25.05C9.10969 25.1959 9.30752 25.2779 9.5138 25.2779H18.0694C18.2756 25.2779 18.4735 25.1959 18.6193 25.05C18.7652 24.9041 18.8471 24.7064 18.8471 24.5001C18.8471 24.2938 18.7652 24.0959 18.6193 23.95C18.4735 23.8041 18.2756 23.7223 18.0694 23.7223H9.5138Z" fill="#FFA07A"/>
<path d="M21.98 24.5016C21.98 24.7079 21.898 24.9057 21.7522 25.0515C21.6063 25.1974 21.4085 25.2794 21.2022 25.2794C20.9959 25.2794 20.7981 25.1974 20.6522 25.0515C20.5064 24.9057 20.4244 24.7079 20.4244 24.5016C20.4244 24.2953 20.5064 24.0974 20.6522 23.9515C20.7981 23.8057 20.9959 23.7238 21.2022 23.7238C21.4085 23.7238 21.6063 23.8057 21.7522 23.9515C21.898 24.0974 21.98 24.2953 21.98 24.5016Z" fill="#FFA07A"/>
<path d="M55.1186 35V24.8182H58.8473C59.5698 24.8182 60.1681 24.9375 60.642 25.1761C61.116 25.4115 61.4706 25.7313 61.706 26.1357C61.9413 26.5367 62.0589 26.9891 62.0589 27.4929C62.0589 27.9171 61.9811 28.2751 61.8253 28.5668C61.6695 28.8551 61.4607 29.0871 61.1989 29.2628C60.9403 29.4351 60.6553 29.5611 60.3438 29.6406V29.7401C60.6818 29.7566 61.0116 29.866 61.3331 30.0682C61.6579 30.267 61.9264 30.5504 62.1385 30.9183C62.3506 31.2862 62.4567 31.7337 62.4567 32.2607C62.4567 32.781 62.334 33.2483 62.0888 33.6626C61.8468 34.0736 61.4723 34.4001 60.9652 34.642C60.4581 34.8807 59.8101 35 59.0213 35H55.1186ZM56.6548 33.6825H58.8722C59.608 33.6825 60.1349 33.54 60.4531 33.255C60.7713 32.9699 60.9304 32.6136 60.9304 32.1861C60.9304 31.8646 60.8492 31.5696 60.6868 31.3011C60.5244 31.0327 60.2924 30.8189 59.9908 30.6598C59.6925 30.5007 59.3378 30.4212 58.9268 30.4212H56.6548V33.6825ZM56.6548 29.223H58.7131C59.0578 29.223 59.3677 29.1567 59.6428 29.0241C59.9212 28.8916 60.1416 28.706 60.304 28.4673C60.4697 28.2254 60.5526 27.9403 60.5526 27.6122C60.5526 27.1913 60.4051 26.8383 60.1101 26.5533C59.8151 26.2682 59.3627 26.1257 58.7528 26.1257H56.6548V29.223ZM65.646 24.8182V35H64.1594V24.8182H65.646ZM72.4831 31.8331V27.3636H73.9746V35H72.513V33.6776H72.4334C72.2578 34.0852 71.976 34.425 71.5882 34.6967C71.2038 34.9652 70.7248 35.0994 70.1515 35.0994C69.6609 35.0994 69.2267 34.9917 68.8489 34.7763C68.4744 34.5575 68.1794 34.2344 67.964 33.8068C67.7518 33.3793 67.6458 32.8506 67.6458 32.2209V27.3636H69.1323V32.0419C69.1323 32.5623 69.2765 32.9766 69.5648 33.2848C69.8532 33.593 70.2277 33.7472 70.6884 33.7472C70.9668 33.7472 71.2435 33.6776 71.5186 33.5384C71.7971 33.3991 72.0274 33.1887 72.2097 32.907C72.3953 32.6252 72.4864 32.2673 72.4831 31.8331ZM79.2631 35.1541C78.5108 35.1541 77.8628 34.9934 77.3192 34.6719C76.779 34.3471 76.3614 33.8913 76.0664 33.3047C75.7747 32.7147 75.6289 32.0237 75.6289 31.2315C75.6289 30.4493 75.7747 29.7599 76.0664 29.1634C76.3614 28.5668 76.7724 28.1011 77.2994 27.7663C77.8297 27.4316 78.4495 27.2642 79.1587 27.2642C79.5896 27.2642 80.0072 27.3355 80.4116 27.478C80.8159 27.6205 81.1789 27.8442 81.5004 28.1491C81.8219 28.4541 82.0754 28.8501 82.261 29.3374C82.4466 29.8213 82.5394 30.4096 82.5394 31.1023V31.6293H76.4691V30.5156H81.0827C81.0827 30.1245 81.0032 29.7782 80.8441 29.4766C80.685 29.1716 80.4613 28.9313 80.1729 28.7557C79.8879 28.58 79.5531 28.4922 79.1687 28.4922C78.7511 28.4922 78.3865 28.5949 78.0749 28.8004C77.7667 29.0026 77.5281 29.2678 77.359 29.5959C77.1933 29.9207 77.1104 30.2737 77.1104 30.6548V31.5249C77.1104 32.0353 77.1999 32.4695 77.3789 32.8274C77.5612 33.1854 77.8147 33.4588 78.1396 33.6477C78.4644 33.8333 78.8439 33.9261 79.2781 33.9261C79.5598 33.9261 79.8166 33.8864 80.0487 33.8068C80.2807 33.724 80.4812 33.6013 80.6502 33.4389C80.8192 33.2765 80.9485 33.076 81.038 32.8374L82.445 33.0909C82.3323 33.5052 82.1301 33.8681 81.8384 34.1797C81.5501 34.4879 81.1871 34.7282 80.7496 34.9006C80.3155 35.0696 79.82 35.1541 79.2631 35.1541Z" fill="white"/>
<path d="M91.1987 28.0348C91.1026 27.7332 90.9733 27.4631 90.8109 27.2244C90.6518 26.9825 90.4612 26.777 90.2392 26.608C90.0171 26.4356 89.7636 26.3047 89.4785 26.2152C89.1968 26.1257 88.8869 26.081 88.5488 26.081C87.9754 26.081 87.4584 26.2285 86.9977 26.5234C86.537 26.8184 86.1724 27.2509 85.9039 27.821C85.6388 28.3878 85.5062 29.0821 85.5062 29.9041C85.5062 30.7294 85.6404 31.4271 85.9089 31.9972C86.1774 32.5672 86.5453 32.9998 87.0126 33.2947C87.4799 33.5897 88.0119 33.7372 88.6085 33.7372C89.162 33.7372 89.6442 33.6245 90.0552 33.3991C90.4695 33.1738 90.7894 32.8556 91.0147 32.4446C91.2434 32.0303 91.3578 31.5431 91.3578 30.983L91.7555 31.0575H88.8422V29.7898H92.8443V30.9482C92.8443 31.8033 92.662 32.5457 92.2974 33.1754C91.9361 33.8018 91.4357 34.2857 90.796 34.6271C90.1596 34.9685 89.4305 35.1392 88.6085 35.1392C87.6871 35.1392 86.8784 34.9271 86.1824 34.5028C85.4896 34.0786 84.9494 33.477 84.5616 32.6982C84.1738 31.916 83.9799 30.9879 83.9799 29.9141C83.9799 29.102 84.0926 28.3729 84.318 27.7266C84.5434 27.0803 84.8599 26.5317 85.2676 26.081C85.6786 25.6269 86.1608 25.2805 86.7143 25.0419C87.2711 24.8 87.8793 24.679 88.5389 24.679C89.0891 24.679 89.6011 24.7602 90.0751 24.9226C90.5524 25.085 90.9766 25.3153 91.3478 25.6136C91.7224 25.9119 92.0323 26.2666 92.2775 26.6776C92.5228 27.0852 92.6885 27.5376 92.7747 28.0348H91.1987ZM96.8974 35.169C96.4135 35.169 95.976 35.0795 95.5849 34.9006C95.1938 34.7183 94.8839 34.4548 94.6552 34.1101C94.4298 33.7654 94.3171 33.3428 94.3171 32.8423C94.3171 32.4115 94.4 32.0568 94.5657 31.7784C94.7314 31.5 94.9551 31.2796 95.2369 31.1172C95.5186 30.9548 95.8335 30.8321 96.1815 30.7493C96.5295 30.6664 96.8841 30.6035 97.2454 30.5604C97.7028 30.5073 98.074 30.4643 98.359 30.4311C98.6441 30.3946 98.8512 30.3366 98.9805 30.2571C99.1097 30.1776 99.1744 30.0483 99.1744 29.8693V29.8345C99.1744 29.4003 99.0517 29.0639 98.8065 28.8253C98.5645 28.5866 98.2032 28.4673 97.7227 28.4673C97.2222 28.4673 96.8278 28.5784 96.5394 28.8004C96.2544 29.0192 96.0572 29.2628 95.9478 29.5312L94.5508 29.2131C94.7165 28.7491 94.9585 28.3745 95.2766 28.0895C95.5981 27.8011 95.9677 27.5923 96.3853 27.4631C96.8029 27.3305 97.2421 27.2642 97.7028 27.2642C98.0077 27.2642 98.3308 27.3007 98.6722 27.3736C99.0169 27.4432 99.3384 27.5724 99.6367 27.7614C99.9383 27.9503 100.185 28.2204 100.377 28.5717C100.57 28.9197 100.666 29.3722 100.666 29.929V35H99.2141V33.956H99.1545C99.0584 34.1482 98.9142 34.3371 98.7219 34.5227C98.5297 34.7083 98.2828 34.8625 97.9812 34.9851C97.6796 35.1077 97.3183 35.169 96.8974 35.169ZM97.2205 33.9759C97.6315 33.9759 97.9828 33.8946 98.2745 33.7322C98.5695 33.5698 98.7932 33.3577 98.9457 33.0959C99.1014 32.8307 99.1793 32.5473 99.1793 32.2457V31.2614C99.1263 31.3144 99.0236 31.3641 98.8711 31.4105C98.7219 31.4536 98.5513 31.4917 98.359 31.5249C98.1668 31.5547 97.9795 31.5829 97.7972 31.6094C97.6149 31.6326 97.4625 31.6525 97.3398 31.669C97.0515 31.7055 96.788 31.7668 96.5494 31.853C96.314 31.9392 96.1251 32.0634 95.9826 32.2259C95.8434 32.3849 95.7738 32.5971 95.7738 32.8622C95.7738 33.2301 95.9097 33.5085 96.1815 33.6974C96.4532 33.883 96.7996 33.9759 97.2205 33.9759ZM104.132 24.8182V35H102.646V24.8182H104.132ZM108.354 35.169C107.871 35.169 107.433 35.0795 107.042 34.9006C106.651 34.7183 106.341 34.4548 106.112 34.1101C105.887 33.7654 105.774 33.3428 105.774 32.8423C105.774 32.4115 105.857 32.0568 106.023 31.7784C106.188 31.5 106.412 31.2796 106.694 31.1172C106.976 30.9548 107.29 30.8321 107.638 30.7493C107.987 30.6664 108.341 30.6035 108.702 30.5604C109.16 30.5073 109.531 30.4643 109.816 30.4311C110.101 30.3946 110.308 30.3366 110.438 30.2571C110.567 30.1776 110.631 30.0483 110.631 29.8693V29.8345C110.631 29.4003 110.509 29.0639 110.263 28.8253C110.022 28.5866 109.66 28.4673 109.18 28.4673C108.679 28.4673 108.285 28.5784 107.996 28.8004C107.711 29.0192 107.514 29.2628 107.405 29.5312L106.008 29.2131C106.174 28.7491 106.415 28.3745 106.734 28.0895C107.055 27.8011 107.425 27.5923 107.842 27.4631C108.26 27.3305 108.699 27.2642 109.16 27.2642C109.465 27.2642 109.788 27.3007 110.129 27.3736C110.474 27.4432 110.795 27.5724 111.094 27.7614C111.395 27.9503 111.642 28.2204 111.835 28.5717C112.027 28.9197 112.123 29.3722 112.123 29.929V35H110.671V33.956H110.612C110.515 34.1482 110.371 34.3371 110.179 34.5227C109.987 34.7083 109.74 34.8625 109.438 34.9851C109.137 35.1077 108.775 35.169 108.354 35.169ZM108.678 33.9759C109.089 33.9759 109.44 33.8946 109.732 33.7322C110.027 33.5698 110.25 33.3577 110.403 33.0959C110.558 32.8307 110.636 32.5473 110.636 32.2457V31.2614C110.583 31.3144 110.481 31.3641 110.328 31.4105C110.179 31.4536 110.008 31.4917 109.816 31.5249C109.624 31.5547 109.437 31.5829 109.254 31.6094C109.072 31.6326 108.92 31.6525 108.797 31.669C108.509 31.7055 108.245 31.7668 108.006 31.853C107.771 31.9392 107.582 32.0634 107.44 32.2259C107.3 32.3849 107.231 32.5971 107.231 32.8622C107.231 33.2301 107.367 33.5085 107.638 33.6974C107.91 33.883 108.257 33.9759 108.678 33.9759ZM115.276 27.3636L116.961 30.3366L118.662 27.3636H120.287L117.906 31.1818L120.307 35H118.682L116.961 32.1463L115.246 35H113.616L115.992 31.1818L113.645 27.3636H115.276ZM122.753 37.8636C122.531 37.8636 122.329 37.8454 122.147 37.8089C121.965 37.7758 121.829 37.7393 121.739 37.6996L122.097 36.4815C122.369 36.5545 122.611 36.5859 122.823 36.576C123.035 36.5661 123.222 36.4865 123.385 36.3374C123.55 36.1882 123.696 35.9446 123.822 35.6065L124.006 35.0994L121.212 27.3636H122.803L124.737 33.2898H124.817L126.751 27.3636H128.346L125.199 36.0192C125.054 36.4169 124.868 36.7533 124.643 37.0284C124.417 37.3068 124.149 37.5156 123.837 37.6548C123.526 37.794 123.164 37.8636 122.753 37.8636Z" fill="#FFA07A"/>
</svg>
