<svg width="18" height="19" viewBox="0 0 18 19" fill="none" xmlns="http://www.w3.org/2000/svg">
<path d="M8.883 0.507L9 0.5C9.24493 0.500032 9.48134 0.589956 9.66437 0.752715C9.84741 0.915475 9.96434 1.13975 9.993 1.383L10 1.5V8.5H17C17.2449 8.50003 17.4813 8.58996 17.6644 8.75272C17.8474 8.91547 17.9643 9.13975 17.993 9.383L18 9.5C18 9.74493 17.91 9.98134 17.7473 10.1644C17.5845 10.3474 17.3603 10.4643 17.117 10.493L17 10.5H10V17.5C9.99997 17.7449 9.91004 17.9813 9.74728 18.1644C9.58453 18.3474 9.36025 18.4643 9.117 18.493L9 18.5C8.75507 18.5 8.51866 18.41 8.33563 18.2473C8.15259 18.0845 8.03566 17.8603 8.007 17.617L8 17.5V10.5H1C0.755067 10.5 0.518663 10.41 0.335628 10.2473C0.152593 10.0845 0.0356572 9.86025 0.00699997 9.617L0 9.5C3.23106e-05 9.25507 0.0899562 9.01866 0.252715 8.83563C0.415475 8.65259 0.639749 8.53566 0.883 8.507L1 8.5H8V1.5C8.00003 1.25507 8.08996 1.01866 8.25272 0.835628C8.41547 0.652593 8.63975 0.535657 8.883 0.507L9 0.5L8.883 0.507Z" fill="#fff"/>
</svg>
